<svg width="36" height="36" viewBox="0 0 36 36" fill="none" xmlns="http://www.w3.org/2000/svg">
<rect width="36" height="36" rx="18" fill="#22C55E"/>
<path d="M17.8611 8.39057C18.8495 7.73163 20.1336 7.71797 21.1358 8.35573L25.291 10.9999H26.9998C27.5521 10.9999 27.9998 11.4477 27.9998 11.9999V20.9999C27.9998 21.5522 27.5521 21.9999 26.9998 21.9999H25.4801C25.5396 22.9472 25.0933 23.9102 24.1955 24.4489L19.1021 27.505C18.4591 27.8907 17.6609 27.8817 17.0314 27.4974C16.3311 28.1167 15.2531 28.1849 14.471 27.5704L9.33028 23.5312C8.56387 22.9291 8.37006 21.9003 8.76579 21.0847C8.28248 20.7057 8 20.1254 8 19.5109V12C8 11.4477 8.44772 11 9 11H13.9469L17.8611 8.39057ZM10.1726 19.6452L10.8647 19.0397C12.0949 17.9632 13.9604 18.0698 15.06 19.2794L17.7622 22.2518C18.6317 23.2083 18.7903 24.6135 18.1579 25.739L23.1665 22.7339C23.4479 22.5651 23.5497 22.2276 23.4448 21.9433L19.0177 15.7455C18.769 15.3974 18.3264 15.246 17.9166 15.3689L15.4313 16.1145C14.3742 16.4316 13.2284 16.1427 12.448 15.3624L12.1552 15.0696C11.5872 14.5016 11.4403 13.6932 11.6793 13H10V19.5109L10.1726 19.6452ZM20.0621 10.0431C19.728 9.83047 19.3 9.83502 18.9705 10.0547L13.5694 13.6554L13.8622 13.9481C14.1223 14.2083 14.5043 14.3046 14.8567 14.1989L17.3419 13.4533C18.5713 13.0845 19.8992 13.5386 20.6452 14.583L24.5144 19.9999H25.9998V12.9999H25.291C24.9106 12.9999 24.5381 12.8915 24.2172 12.6873L20.0621 10.0431ZM12.1817 20.5448L10.5659 21.9586L15.7067 25.9978L16.4106 24.7659C16.6256 24.3897 16.5738 23.9178 16.2823 23.5971L13.5801 20.6247C13.2136 20.2215 12.5918 20.186 12.1817 20.5448Z" fill="white"/>
</svg>
