<svg width="36" height="36" viewBox="0 0 36 36" fill="none" xmlns="http://www.w3.org/2000/svg">
<rect width="36" height="36" rx="18" fill="#EF4444"/>
<g clip-path="url(#clip0_3972_6135)">
<path d="M18.0002 8.25C17.7241 8.25 17.5002 8.47386 17.5002 8.75V18.25H15.5002V10.75C15.5002 10.4739 15.2763 10.25 15.0002 10.25C14.7241 10.25 14.5002 10.4739 14.5002 10.75V20.25C14.1465 20.25 12.5002 20.25 12.5002 20.25C12.1191 18.6292 11.1424 17.6907 10.0954 17.5716C10.3793 18.3164 10.8612 19.5092 11.6663 21.3495C12.5251 23.3122 13.3913 24.7718 14.5037 25.7486C15.5783 26.692 16.9586 27.25 19.0002 27.25C22.0378 27.25 24.5002 24.7877 24.5002 21.7502V13.25C24.5002 12.9739 24.2763 12.75 24.0002 12.75C23.7241 12.75 23.5002 12.9739 23.5002 13.25V18.25H21.5002V10.25C21.5002 9.97386 21.2763 9.75 21.0002 9.75C20.7241 9.75 20.5002 9.97386 20.5002 10.25V18.25H18.5002V8.75C18.5002 8.47386 18.2763 8.25 18.0002 8.25ZM26.5002 21.7502C26.5002 25.8924 23.1423 29.25 19.0002 29.25C16.5417 29.25 14.6721 28.558 13.1842 27.2515C11.7341 25.9783 10.7253 24.1881 9.83405 22.1512C8.90393 20.0253 8.39004 18.7304 8.10991 17.9735C7.75318 17.0097 8.24616 15.6621 9.58583 15.5685C10.7408 15.4877 11.7206 15.8625 12.5002 16.5087V10.75C12.5002 9.36929 13.6195 8.25 15.0002 8.25C15.1852 8.25 15.3655 8.2701 15.5391 8.30823C15.7477 7.13823 16.7702 6.25 18.0002 6.25C19.0602 6.25 19.9661 6.90969 20.3298 7.84091C20.5431 7.78167 20.768 7.75 21.0002 7.75C22.3809 7.75 23.5002 8.86929 23.5002 10.25V10.8C23.6618 10.7672 23.829 10.75 24.0002 10.75C25.3809 10.75 26.5002 11.8693 26.5002 13.25V21.7502Z" fill="white"/>
</g>
<defs>
<clipPath id="clip0_3972_6135">
<rect width="24" height="24" fill="white" transform="translate(5.5 6.25)"/>
</clipPath>
</defs>
</svg>
